<mxfile host="app.diagrams.net" modified="2022-06-21T04:30:41.318Z" agent="5.0 (Macintosh; Intel Mac OS X 10_15_7) AppleWebKit/605.1.15 (KHTML, like Gecko) Version/15.5 Safari/605.1.15" etag="T5grqfh03e2B7g5z5qsn" version="20.0.1" type="github">
  <diagram id="eCDOoN4uMxQwJPJ5kMDL" name="Page-1">
    <mxGraphModel dx="946" dy="538" grid="1" gridSize="10" guides="1" tooltips="1" connect="1" arrows="1" fold="1" page="1" pageScale="1" pageWidth="827" pageHeight="1169" background="#182E3E" math="0" shadow="0">
      <root>
        <mxCell id="0" />
        <mxCell id="1" parent="0" />
        <mxCell id="c7iSaNQ2As872wMuvz9c-7" value="&lt;b&gt;PRECISION AGRICULTURE&lt;/b&gt;" style="rounded=1;whiteSpace=wrap;html=1;fillColor=#EEEEEE;strokeColor=#FFFFFF;fontColor=#1A1A1A;" vertex="1" parent="1">
          <mxGeometry x="280" y="80" width="200" height="80" as="geometry" />
        </mxCell>
        <mxCell id="c7iSaNQ2As872wMuvz9c-8" value="" style="endArrow=classic;html=1;rounded=0;exitX=0.5;exitY=1;exitDx=0;exitDy=0;strokeColor=#FFFFFF;fontColor=#FFFFFF;labelBackgroundColor=#182E3E;curved=1;" edge="1" parent="1" source="c7iSaNQ2As872wMuvz9c-7">
          <mxGeometry width="50" height="50" relative="1" as="geometry">
            <mxPoint x="390" y="270" as="sourcePoint" />
            <mxPoint x="240" y="240" as="targetPoint" />
            <Array as="points">
              <mxPoint x="380" y="200" />
              <mxPoint x="240" y="200" />
            </Array>
          </mxGeometry>
        </mxCell>
        <mxCell id="c7iSaNQ2As872wMuvz9c-9" value="" style="endArrow=classic;html=1;rounded=0;exitX=0.5;exitY=1;exitDx=0;exitDy=0;strokeColor=#FFFFFF;fontColor=#FFFFFF;labelBackgroundColor=#182E3E;curved=1;" edge="1" parent="1" source="c7iSaNQ2As872wMuvz9c-7">
          <mxGeometry width="50" height="50" relative="1" as="geometry">
            <mxPoint x="390" y="170" as="sourcePoint" />
            <mxPoint x="520" y="240" as="targetPoint" />
            <Array as="points">
              <mxPoint x="380" y="200" />
              <mxPoint x="520" y="200" />
            </Array>
          </mxGeometry>
        </mxCell>
        <mxCell id="c7iSaNQ2As872wMuvz9c-10" value="Manager User" style="rounded=1;whiteSpace=wrap;html=1;fillColor=#EEEEEE;strokeColor=#FFFFFF;fontColor=#1A1A1A;" vertex="1" parent="1">
          <mxGeometry x="180" y="240" width="120" height="60" as="geometry" />
        </mxCell>
        <mxCell id="c7iSaNQ2As872wMuvz9c-22" value="" style="edgeStyle=orthogonalEdgeStyle;rounded=0;orthogonalLoop=1;jettySize=auto;html=1;strokeColor=#FFFFFF;fontColor=#FFFFFF;labelBackgroundColor=#182E3E;curved=1;" edge="1" parent="1" source="c7iSaNQ2As872wMuvz9c-12" target="c7iSaNQ2As872wMuvz9c-21">
          <mxGeometry relative="1" as="geometry" />
        </mxCell>
        <mxCell id="c7iSaNQ2As872wMuvz9c-12" value="Manager Project" style="rounded=1;whiteSpace=wrap;html=1;fillColor=#EEEEEE;strokeColor=#FFFFFF;fontColor=#1A1A1A;" vertex="1" parent="1">
          <mxGeometry x="460" y="240" width="120" height="60" as="geometry" />
        </mxCell>
        <mxCell id="c7iSaNQ2As872wMuvz9c-13" value="" style="endArrow=classic;html=1;rounded=0;exitX=0.5;exitY=1;exitDx=0;exitDy=0;strokeColor=#FFFFFF;fontColor=#FFFFFF;labelBackgroundColor=#182E3E;curved=1;" edge="1" parent="1" source="c7iSaNQ2As872wMuvz9c-10">
          <mxGeometry width="50" height="50" relative="1" as="geometry">
            <mxPoint x="310" y="320" as="sourcePoint" />
            <mxPoint x="280" y="360" as="targetPoint" />
            <Array as="points">
              <mxPoint x="240" y="360" />
            </Array>
          </mxGeometry>
        </mxCell>
        <mxCell id="c7iSaNQ2As872wMuvz9c-14" value="" style="endArrow=classic;html=1;rounded=0;strokeColor=#FFFFFF;fontColor=#FFFFFF;labelBackgroundColor=#182E3E;curved=1;exitX=0.5;exitY=1;exitDx=0;exitDy=0;" edge="1" parent="1" source="c7iSaNQ2As872wMuvz9c-10">
          <mxGeometry width="50" height="50" relative="1" as="geometry">
            <mxPoint x="240" y="360" as="sourcePoint" />
            <mxPoint x="280" y="440" as="targetPoint" />
            <Array as="points">
              <mxPoint x="240" y="400" />
              <mxPoint x="240" y="440" />
            </Array>
          </mxGeometry>
        </mxCell>
        <mxCell id="c7iSaNQ2As872wMuvz9c-15" value="Login in/out" style="rounded=1;whiteSpace=wrap;html=1;fillColor=#EEEEEE;strokeColor=#FFFFFF;fontColor=#1A1A1A;" vertex="1" parent="1">
          <mxGeometry x="280" y="330" width="120" height="60" as="geometry" />
        </mxCell>
        <mxCell id="c7iSaNQ2As872wMuvz9c-16" value="Sign up" style="rounded=1;whiteSpace=wrap;html=1;fillColor=#EEEEEE;strokeColor=#FFFFFF;fontColor=#1A1A1A;" vertex="1" parent="1">
          <mxGeometry x="280" y="410" width="120" height="60" as="geometry" />
        </mxCell>
        <mxCell id="c7iSaNQ2As872wMuvz9c-17" value="" style="endArrow=classic;html=1;rounded=0;strokeColor=#FFFFFF;fontColor=#FFFFFF;labelBackgroundColor=#182E3E;curved=1;exitX=0.5;exitY=1;exitDx=0;exitDy=0;" edge="1" parent="1" source="c7iSaNQ2As872wMuvz9c-10">
          <mxGeometry width="50" height="50" relative="1" as="geometry">
            <mxPoint x="240" y="440" as="sourcePoint" />
            <mxPoint x="280" y="520" as="targetPoint" />
            <Array as="points">
              <mxPoint x="240" y="420" />
              <mxPoint x="240" y="520" />
            </Array>
          </mxGeometry>
        </mxCell>
        <mxCell id="c7iSaNQ2As872wMuvz9c-18" value="Profile user" style="rounded=1;whiteSpace=wrap;html=1;fillColor=#EEEEEE;strokeColor=#FFFFFF;fontColor=#1A1A1A;" vertex="1" parent="1">
          <mxGeometry x="280" y="490" width="120" height="60" as="geometry" />
        </mxCell>
        <mxCell id="c7iSaNQ2As872wMuvz9c-21" value="Task" style="whiteSpace=wrap;html=1;rounded=1;fillColor=#EEEEEE;strokeColor=#FFFFFF;fontColor=#1A1A1A;" vertex="1" parent="1">
          <mxGeometry x="460" y="330" width="120" height="60" as="geometry" />
        </mxCell>
        <mxCell id="c7iSaNQ2As872wMuvz9c-23" value="" style="endArrow=classic;html=1;rounded=0;exitX=0.5;exitY=1;exitDx=0;exitDy=0;strokeColor=#FFFFFF;fontColor=#FFFFFF;labelBackgroundColor=#182E3E;curved=1;" edge="1" parent="1" source="c7iSaNQ2As872wMuvz9c-21">
          <mxGeometry width="50" height="50" relative="1" as="geometry">
            <mxPoint x="520" y="440" as="sourcePoint" />
            <mxPoint x="560" y="440" as="targetPoint" />
            <Array as="points">
              <mxPoint x="520" y="440" />
            </Array>
          </mxGeometry>
        </mxCell>
        <mxCell id="c7iSaNQ2As872wMuvz9c-24" value="Orthophoto" style="rounded=1;whiteSpace=wrap;html=1;fillColor=#EEEEEE;strokeColor=#FFFFFF;fontColor=#1A1A1A;" vertex="1" parent="1">
          <mxGeometry x="560" y="410" width="120" height="60" as="geometry" />
        </mxCell>
        <mxCell id="c7iSaNQ2As872wMuvz9c-25" value="" style="endArrow=classic;html=1;rounded=0;strokeColor=#FFFFFF;fontColor=#FFFFFF;labelBackgroundColor=#182E3E;curved=1;" edge="1" parent="1">
          <mxGeometry width="50" height="50" relative="1" as="geometry">
            <mxPoint x="520" y="390" as="sourcePoint" />
            <mxPoint x="560" y="520" as="targetPoint" />
            <Array as="points">
              <mxPoint x="520" y="460" />
              <mxPoint x="520" y="520" />
            </Array>
          </mxGeometry>
        </mxCell>
        <mxCell id="c7iSaNQ2As872wMuvz9c-26" value="Precision Agriculture" style="rounded=1;whiteSpace=wrap;html=1;fillColor=#EEEEEE;strokeColor=#FFFFFF;fontColor=#1A1A1A;" vertex="1" parent="1">
          <mxGeometry x="560" y="490" width="120" height="60" as="geometry" />
        </mxCell>
      </root>
    </mxGraphModel>
  </diagram>
</mxfile>
